<svg width="96" height="96" viewBox="0 0 96 96" fill="none" xmlns="http://www.w3.org/2000/svg">
  <rect width="96" height="96" rx="22" fill="#16A34A"/>
  <path d="M25 70V26H47.5C56.3 26 61.8 31.1 61.8 38.4C61.8 43 59.5 46.6 55.7 48.4C60.6 50 63.7 53.8 63.7 59.1C63.7 66 58.1 70 48.9 70H25ZM35.2 44.4H46.1C49.6 44.4 51.5 42.7 51.5 39.8C51.5 36.9 49.5 35.3 46 35.3H35.2V44.4ZM35.2 60.7H47.9C51.5 60.7 53.4 59.1 53.4 56C53.4 53 51.3 51.3 47.8 51.3H35.2V60.7Z" fill="#F7FFF8"/>
  <path d="M69.2 70L65.9 60.8H49.9L46.6 70H36.1L53 26H63.1L80 70H69.2ZM53.1 51.7H62.7L57.9 38.2L53.1 51.7Z" fill="#DFFBE8"/>
  <path d="M20 76H76" stroke="#F7FFF8" stroke-width="5" stroke-linecap="round"/>
</svg>
