<svg width="96" height="96" viewBox="0 0 96 96" fill="none" xmlns="http://www.w3.org/2000/svg">
  <rect x="6" y="6" width="84" height="84" rx="24" fill="#0F0F0F"/>
  <rect x="6.75" y="6.75" width="82.5" height="82.5" rx="23.25" stroke="#F43F5E" stroke-opacity="0.42" stroke-width="1.5"/>
  <path d="M27 68V28H43.8C51.4 28 56.2 32.4 56.2 38.6C56.2 42.3 54.4 45.3 51.3 47C55.2 48.5 57.6 51.7 57.6 56.1C57.6 63.3 52.2 68 43.7 68H27ZM36.3 44H42.5C45.3 44 46.9 42.6 46.9 40.1C46.9 37.7 45.2 36.3 42.4 36.3H36.3V44ZM36.3 59.6H43.2C46.3 59.6 48.1 58.1 48.1 55.4C48.1 52.8 46.3 51.3 43.1 51.3H36.3V59.6Z" fill="#FFF8F8"/>
  <path d="M67.5 68L64.9 60.9H52.7L50.1 68H40.8L56.3 28H61.9L77.2 68H67.5ZM55.4 53.1H62.2L58.8 43.1L55.4 53.1Z" fill="#F43F5E"/>
  <path d="M27 76H69" stroke="#F43F5E" stroke-opacity="0.72" stroke-width="3" stroke-linecap="round"/>
</svg>
